<svg width="336" height="338" viewBox="0 0 336 338" fill="none" xmlns="http://www.w3.org/2000/svg">
<g clip-path="url(#clip0_52_6)">
<path d="M263.174 88.959H74.5742C71.5742 88.959 69.0742 86.559 69.0742 83.459C69.0742 80.459 71.4742 77.959 74.5742 77.959H263.174C266.174 77.959 268.674 80.359 268.674 83.459C268.574 86.459 266.174 88.959 263.174 88.959Z" fill="#2262E3"/>
<path d="M239.673 109.859H97.9734C94.8734 109.859 92.2734 107.359 92.2734 104.159C92.2734 101.059 94.7734 98.459 97.9734 98.459H239.673C242.773 98.459 245.373 100.959 245.373 104.159C245.373 107.359 242.873 109.859 239.673 109.859Z" fill="#2262E3"/>
<path d="M168.475 154.959C170.974 154.86 172.975 156.959 172.975 159.459V326.162C173.008 326.161 173.041 326.16 173.074 326.159V337.059C171.374 337.159 169.574 337.158 167.774 337.158V337.159L167.773 337.158V337.159C165.874 337.159 163.874 337.159 161.974 337.059V326.159C162.007 326.16 162.041 326.161 162.074 326.162V159.459C162.074 156.959 164.075 154.959 166.475 154.959H168.475ZM142.074 154.959C144.574 154.86 146.574 156.959 146.574 159.459V324.946C146.607 324.95 146.641 324.955 146.674 324.959V335.859C146.641 335.854 146.607 335.849 146.574 335.844V335.859C144.166 335.533 141.801 335.164 139.45 334.754C138.158 334.534 136.866 334.303 135.574 334.059V323.059C135.607 323.066 135.641 323.072 135.674 323.079V159.459C135.674 156.959 137.674 154.959 140.074 154.959H142.074ZM195.874 154.959C198.374 154.86 200.374 156.959 200.374 159.459V322.877C200.407 322.871 200.44 322.865 200.474 322.859V333.959C198.131 334.415 195.745 334.827 193.317 335.198C192.045 335.397 190.766 335.585 189.474 335.759V335.745C189.44 335.75 189.407 335.755 189.374 335.759V324.759C189.407 324.755 189.44 324.749 189.474 324.745V159.459C189.474 156.959 191.474 154.959 193.874 154.959H195.874ZM167.773 0.059082C260.373 0.059082 335.374 75.5591 335.374 168.559C335.374 240.059 291.074 301.158 228.574 325.659C228.508 325.684 228.44 325.709 228.374 325.735V325.759C224.774 327.159 221.174 328.459 217.474 329.659V159.459C217.651 156.662 217.829 154.713 218.014 153.402C218.137 151.654 218.482 149.92 219.099 148.256C220.898 143.401 224.827 139.67 230.768 138.206L231.258 138.09C236.299 136.951 240.755 137.721 244.138 140.308C247.487 142.87 249.027 146.642 249.426 149.979C249.809 153.187 249.243 156.964 247.104 159.722C245.962 161.193 244.231 162.519 241.914 162.906C239.75 163.267 237.711 162.702 235.983 161.713L235.642 161.51L235.427 161.37C233.251 159.865 232.615 156.902 234.022 154.627C235.201 152.724 237.45 151.887 239.51 152.413C239.548 152.035 239.549 151.61 239.496 151.164C239.332 149.789 238.754 148.779 238.062 148.25C237.514 147.831 236.186 147.165 233.18 147.911L233.167 147.914C230.365 148.603 229.098 150.052 228.476 151.731C227.758 153.668 227.749 156.43 228.708 159.504C229.656 162.541 231.405 165.396 233.52 167.376C235.633 169.355 237.774 170.18 239.68 170.068L240.104 170.038C249.006 169.345 258.733 163.247 259.277 149.856L259.294 149.148C259.328 141.916 255.278 137.334 250.404 134.328C247.917 132.793 245.331 131.764 243.263 131.14C242.629 131.108 241.903 131.05 241.074 130.959L96.0791 130.759C95.5174 130.857 94.6916 131.041 93.6836 131.34C91.6129 131.955 88.9951 132.988 86.4814 134.539C81.5023 137.612 77.4243 142.32 77.7197 149.84L77.7529 150.466C78.5768 163.286 88.0105 169.149 96.6455 169.79L97.0625 169.817L97.0801 169.818L97.0967 169.819C98.9092 169.93 100.98 169.153 103.057 167.21C105.135 165.266 106.863 162.448 107.8 159.446C108.748 156.404 108.73 153.697 108.036 151.822C107.443 150.218 106.241 148.826 103.521 148.158L103.508 148.154C100.557 147.421 99.3119 148.086 98.8369 148.45C98.2126 148.927 97.6584 149.867 97.5 151.194C97.4594 151.534 97.4515 151.839 97.4629 152.106C99.5449 151.698 101.755 152.585 102.938 154.495C104.463 156.961 103.702 160.197 101.237 161.723C99.4026 162.859 97.1761 163.549 94.793 163.152C92.4008 162.753 90.6173 161.385 89.4463 159.875C87.2545 157.05 86.6854 153.2 87.0732 149.95C87.4774 146.564 89.0424 142.723 92.458 140.11C96.0204 137.385 100.733 136.649 106.025 137.96C112.055 139.442 116.055 143.237 117.884 148.177C118.556 149.993 118.907 151.888 119.006 153.793C119.088 154.605 119.144 155.464 119.174 156.359V318.626C119.207 318.637 119.24 318.648 119.273 318.659V329.959C119.24 329.949 119.207 329.938 119.174 329.928V329.959C118.766 329.827 118.36 329.693 117.955 329.558C114.695 328.548 111.434 327.392 108.174 326.159C45.0739 301.959 0.173828 240.559 0.173828 168.559C0.173828 75.5592 75.1736 0.0592976 167.773 0.059082ZM167.574 10.8589C80.9742 10.8589 10.7734 81.4591 10.7734 168.559C10.7734 234.559 50.9738 291.059 108.174 314.559C108.211 314.575 108.249 314.589 108.286 314.605L108.449 176.383C105.172 178.883 101.083 180.574 96.4854 180.3C96.4789 180.3 96.4723 180.3 96.4658 180.299C96.461 180.299 96.456 180.299 96.4512 180.299C83.5427 179.574 68.0669 170.394 67.2285 150.278V150.268C66.7282 137.695 73.9985 129.904 80.9668 125.604C84.4276 123.468 87.935 122.094 90.6953 121.275C91.8517 120.931 92.9167 120.676 93.834 120.498C94.4707 120.359 95.2128 120.214 96.0742 120.059H241.074C247.269 120.536 256.005 124.647 260.794 129.706C265.603 134.167 269.483 140.656 269.287 149.682L269.27 150.262C268.469 169.947 253.526 179.014 240.868 180.009L240.268 180.05C235.7 180.319 231.632 178.622 228.374 176.112V313.946C228.44 313.916 228.508 313.888 228.574 313.859C284.874 289.859 324.374 233.859 324.374 168.559C324.374 81.4592 254.174 10.8591 167.574 10.8589Z" fill="#2262E3"/>
</g>
<defs>
<clipPath id="clip0_52_6">
<rect width="336" height="338" fill="white"/>
</clipPath>
</defs>
</svg>
