<svg width="792" height="246" viewBox="0 0 792 246" fill="none" xmlns="http://www.w3.org/2000/svg">
<path d="M352.14 78.7697C350.43 75.9497 347.76 73.6997 344.14 72.0197C342.41 71.2197 340.42 70.5997 338.19 70.1797C339.27 69.7597 340.25 69.2597 341.16 68.6997C344.21 66.8097 346.43 64.4897 347.81 61.7697C349.2 59.0297 349.88 56.2197 349.88 53.3297C349.88 47.8697 348.06 43.5797 344.43 40.4597C340.8 37.3397 335.64 35.7897 328.96 35.7897H286.24C285.32 35.7897 284.06 35.5597 283.17 35.7897C282.09 36.0697 282.32 36.8397 282.33 37.8497C282.33 40.4197 282.33 42.9997 282.34 45.5697C282.35 54.1297 282.37 62.6897 282.37 71.2497C282.39 79.9597 282.4 88.6697 282.41 97.3897C282.41 99.6397 282.42 101.89 282.42 104.15C282.42 105.54 281.8 107.75 283.29 108.08C284.25 108.28 285.48 108.08 286.46 108.08H330.69C335.96 108.08 340.36 107.23 343.9 105.53C347.43 103.82 350.11 101.49 351.95 98.5397C353.78 95.5897 354.69 92.1797 354.69 88.3297C354.69 84.7797 353.84 81.5997 352.14 78.7697ZM326.16 45.9997C329.69 45.9997 332.4 46.8597 334.26 48.5597C336.12 50.2597 337.06 52.4297 337.06 55.0597C337.06 58.5997 335.93 61.3097 333.69 63.2097C331.44 65.0997 328.61 66.0497 325.21 66.0497C315.75 66.1397 306.29 66.2197 296.83 66.3097C296.69 59.5397 296.54 52.7697 296.4 45.9997H326.16ZM338.55 95.1097C336.33 96.9397 333.23 97.8497 329.25 97.8497H296.34C296.55 90.6097 296.76 83.3797 296.97 76.1397C306.8 76.0497 316.62 75.9597 326.45 75.8797C331.52 75.8797 335.36 76.8697 337.96 78.8697C340.57 80.8597 341.87 83.6497 341.87 87.2497C341.87 90.6597 340.76 93.2697 338.55 95.1097Z" fill="#144BC4"/>
<path d="M419.93 80.7997C418.71 86.5197 416.68 91.5297 413.86 95.8297C411.03 100.14 407.55 103.48 403.4 105.85C399.26 108.23 394.64 109.42 389.57 109.42C384.24 109.42 379.51 108.22 375.4 105.81C371.29 103.4 368.07 100.04 365.76 95.7397C363.45 91.4397 362.29 86.4597 362.29 80.7997C362.29 75.0797 363.45 70.0897 365.76 65.8097C368.07 61.5397 371.28 58.1997 375.4 55.7897C379.51 53.3797 384.23 52.1797 389.57 52.1797C394.64 52.1797 399.26 53.3697 403.4 55.7497C407.54 58.1297 411.05 61.4497 413.9 65.7197C416.77 69.9897 418.78 75.0097 419.93 80.7997ZM375.02 80.7997C375.02 84.4597 375.77 87.6897 377.29 90.4897C378.8 93.2897 380.87 95.4697 383.5 97.0397C386.14 98.6197 389.15 99.3997 392.56 99.3997C396.03 99.3997 399.24 98.6097 402.2 97.0397C405.16 95.4697 407.77 93.2797 410.05 90.4897C412.33 87.6997 414.15 84.4697 415.49 80.7997C414.14 77.1397 412.32 73.9097 410.05 71.1097C407.77 68.3097 405.15 66.1297 402.2 64.5597C399.24 62.9897 396.03 62.1997 392.56 62.1997C389.15 62.1997 386.14 62.9897 383.5 64.5597C380.86 66.1297 378.79 68.3197 377.29 71.1097C375.78 73.8997 375.02 77.1297 375.02 80.7997ZM416.08 108.07L413.96 87.8297L416.47 80.7897L413.96 73.8497L416.08 53.5097H428.99L426.1 80.7797L428.99 108.05H416.08V108.07Z" fill="#144BC4"/>
<path d="M438.439 53.5199H450.969L454.249 73.3699V108.07H441.719V70.9699L438.439 53.5199ZM481.899 53.1399V64.1299C480.489 63.7399 478.939 63.4599 477.269 63.2599C475.599 63.0699 474.019 62.9699 472.549 62.9699C469.019 62.9699 465.869 63.7399 463.109 65.2799C460.349 66.8199 458.179 69.1199 456.599 72.1699C455.029 75.2199 454.239 78.9599 454.239 83.3999L451.349 79.8299C451.599 75.9799 452.259 72.3599 453.319 68.9899C454.379 65.6199 455.859 62.6799 457.749 60.1699C459.639 57.6599 461.969 55.6999 464.739 54.2899C467.499 52.8799 470.709 52.1699 474.379 52.1699C475.659 52.1699 476.979 52.2499 478.329 52.4099C479.689 52.5699 480.869 52.8199 481.899 53.1399Z" fill="#144BC4"/>
<path d="M487.2 53.5199H499.73L503.01 73.3699V108.07H490.48V70.9699L487.2 53.5199ZM530.67 53.1399V64.1299C529.26 63.7399 527.71 63.4599 526.05 63.2599C524.38 63.0699 522.8 62.9699 521.33 62.9699C517.8 62.9699 514.65 63.7399 511.89 65.2799C509.13 66.8199 506.96 69.1199 505.38 72.1699C503.81 75.2199 503.02 78.9599 503.02 83.3999L500.13 79.8299C500.39 75.9799 501.05 72.3599 502.11 68.9899C503.17 65.6199 504.65 62.6799 506.54 60.1699C508.43 57.6599 510.76 55.6999 513.53 54.2899C516.29 52.8799 519.51 52.1699 523.17 52.1699C524.45 52.1699 525.77 52.2499 527.12 52.4099C528.45 52.5699 529.64 52.8199 530.67 53.1399Z" fill="#144BC4"/>
<path d="M544.83 46.2898C542.45 46.2898 540.49 45.6298 538.95 44.3098C537.41 42.9898 536.64 41.2698 536.64 39.1498C536.64 37.0298 537.41 35.3098 538.95 33.9898C540.49 32.6698 542.45 32.0098 544.83 32.0098C547.27 32.0098 549.25 32.6698 550.76 33.9898C552.27 35.3098 553.03 37.0298 553.03 39.1498C553.03 41.2698 552.27 42.9898 550.76 44.3098C549.25 45.6398 547.27 46.2898 544.83 46.2898ZM538.57 53.1398L544.83 54.2998L551.1 53.1398V108.07H538.57V53.1398Z" fill="#144BC4"/>
<path d="M620.87 91.4897C620.87 95.1497 619.84 98.3297 617.79 101.03C615.73 103.73 612.62 105.8 608.44 107.25C604.26 108.7 599.03 109.42 592.73 109.42C586.24 109.42 580.62 108.6 575.86 106.96C571.11 105.32 567.43 103.01 564.82 100.02C562.22 97.0297 560.82 93.5797 560.63 89.6597H573.35C573.74 91.7197 574.78 93.5297 576.48 95.1097C578.18 96.6797 580.43 97.8897 583.23 98.7197C586.02 99.5597 589.22 99.9697 592.82 99.9697C598.02 99.9697 601.94 99.3397 604.58 98.0897C607.22 96.8397 608.53 94.9297 608.53 92.3597C608.53 90.6297 607.65 89.3097 605.88 88.4097C604.11 87.5097 600.79 86.8397 595.9 86.3897L585.2 85.4297C579.42 84.9197 574.86 83.8697 571.51 82.2997C568.17 80.7297 565.79 78.7997 564.38 76.5197C562.97 74.2397 562.26 71.8097 562.26 69.2397C562.26 65.5097 563.42 62.3997 565.73 59.8897C568.04 57.3797 571.25 55.4697 575.37 54.1597C579.48 52.8397 584.27 52.1797 589.73 52.1797C595.38 52.1797 600.43 52.9697 604.86 54.5397C609.29 56.1097 612.83 58.2997 615.46 61.0897C618.09 63.8897 619.57 67.1097 619.89 70.7797H607.17C606.91 69.2997 606.16 67.8697 604.91 66.4897C603.66 65.1097 601.76 63.9497 599.22 63.0197C596.68 62.0897 593.29 61.6197 589.05 61.6197C584.55 61.6197 581.03 62.1997 578.5 63.3497C575.96 64.5097 574.69 66.2097 574.69 68.4597C574.69 69.8697 575.46 71.0797 577 72.0697C578.54 73.0697 581.4 73.7597 585.58 74.1397L599.36 75.3897C604.89 75.8997 609.21 76.8797 612.32 78.3297C615.44 79.7797 617.64 81.6197 618.92 83.8697C620.23 86.1297 620.87 88.6697 620.87 91.4897Z" fill="#144BC4"/>
<path d="M624.34 63.16V57.47L636 54.48L641.2 39.25H648.52V53.51H673.87V63.15H648.52V86.76C648.52 91.32 649.5 94.52 651.46 96.35C653.42 98.18 656.62 99.1 661.05 99.1C663.88 99.1 666.38 98.8 668.57 98.18C670.75 97.57 672.84 96.69 674.83 95.53V105.84C673.16 106.68 670.8 107.48 667.75 108.25C664.7 109.02 661.57 109.41 658.35 109.41C653.02 109.41 648.71 108.53 645.44 106.76C642.16 104.99 639.77 102.55 638.26 99.44C636.75 96.32 635.99 92.74 635.99 88.69V63.15H624.34V63.16Z" fill="#144BC4"/>
<path d="M711.85 109.419C705.49 109.419 699.83 108.219 694.89 105.809C689.94 103.399 686.06 100.039 683.23 95.7395C680.4 91.4395 678.99 86.4195 678.99 80.7095C678.99 75.0595 680.32 70.0895 682.99 65.8195C685.66 61.5495 689.35 58.2095 694.07 55.7995C698.79 53.3895 704.2 52.1895 710.31 52.1895C716.41 52.1895 721.7 53.5594 726.16 56.2894C730.63 59.0194 734.08 62.8594 736.52 67.8094C738.96 72.7594 740.18 78.5695 740.18 85.2495H688.81V75.7095H733.91L727.65 79.2794C727.46 75.6794 726.6 72.5994 725.1 70.0294C723.59 67.4594 721.56 65.4895 719.03 64.0995C716.49 62.7195 713.49 62.0294 710.02 62.0294C706.36 62.0294 703.16 62.7695 700.43 64.2495C697.7 65.7295 695.56 67.7995 694.02 70.4695C692.48 73.1395 691.71 76.2995 691.71 79.9595C691.71 84.0095 692.63 87.5095 694.46 90.4595C696.29 93.4195 698.89 95.6795 702.27 97.2495C705.64 98.8195 709.64 99.6095 714.27 99.6095C718.45 99.6095 722.72 98.9495 727.09 97.6295C731.46 96.3095 735.31 94.4694 738.66 92.0894V101.149C735.32 103.719 731.25 105.739 726.47 107.219C721.67 108.679 716.8 109.419 711.85 109.419Z" fill="#144BC4"/>
<path d="M747.899 53.5199H760.429L763.709 73.3699V108.07H751.179V70.9699L747.899 53.5199ZM791.359 53.1399V64.1299C789.949 63.7399 788.399 63.4599 786.729 63.2599C785.059 63.0699 783.479 62.9699 782.009 62.9699C778.479 62.9699 775.329 63.7399 772.569 65.2799C769.809 66.8199 767.639 69.1199 766.069 72.1699C764.499 75.2199 763.709 78.9599 763.709 83.3999L760.819 79.8299C761.079 75.9799 761.739 72.3599 762.799 68.9899C763.859 65.6199 765.339 62.6799 767.229 60.1699C769.119 57.6599 771.449 55.6999 774.219 54.2899C776.979 52.8799 780.199 52.1699 783.859 52.1699C785.149 52.1699 786.459 52.2499 787.809 52.4099C789.139 52.5699 790.329 52.8199 791.359 53.1399Z" fill="#144BC4"/>
<path d="M361.24 180.64C360.6 186.55 358.53 191.77 355.03 196.3C351.53 200.83 346.95 204.35 341.3 206.85C335.65 209.35 329.19 210.61 321.93 210.61C313.83 210.61 306.73 209.04 300.63 205.89C294.53 202.74 289.77 198.36 286.37 192.73C282.96 187.11 281.26 180.57 281.26 173.12C281.26 165.67 282.96 159.13 286.37 153.51C289.77 147.89 294.53 143.5 300.63 140.35C306.73 137.2 313.83 135.63 321.93 135.63C329.19 135.63 335.65 136.88 341.3 139.39C346.95 141.9 351.53 145.4 355.03 149.89C358.53 154.39 360.6 159.62 361.24 165.6H348.42C347.71 161.75 346.19 158.44 343.84 155.67C341.49 152.91 338.46 150.77 334.73 149.26C331 147.75 326.7 147 321.82 147C316.16 147 311.27 148.06 307.12 150.18C302.98 152.3 299.78 155.32 297.53 159.24C295.28 163.16 294.16 167.79 294.16 173.12C294.16 178.45 295.28 183.08 297.53 187C299.78 190.92 302.98 193.94 307.12 196.06C311.26 198.18 316.16 199.24 321.82 199.24C326.7 199.24 331.01 198.5 334.73 197.02C338.46 195.54 341.49 193.41 343.84 190.61C346.19 187.81 347.71 184.49 348.42 180.64H361.24Z" fill="#144BC4"/>
<path d="M401.62 210.61C395 210.61 389.2 209.41 384.22 207C379.24 204.59 375.35 201.23 372.56 196.93C369.76 192.63 368.37 187.65 368.37 181.99C368.37 176.27 369.77 171.28 372.56 167C375.35 162.73 379.24 159.39 384.22 156.98C389.2 154.57 395 153.37 401.62 153.37C408.24 153.37 414.04 154.57 419.02 156.98C424 159.39 427.89 162.73 430.68 167C433.48 171.27 434.87 176.27 434.87 181.99C434.87 187.64 433.47 192.62 430.68 196.93C427.89 201.24 424 204.59 419.02 207C414.04 209.41 408.24 210.61 401.62 210.61ZM401.62 200.78C405.86 200.78 409.51 200.01 412.56 198.47C415.61 196.93 417.97 194.76 419.64 191.97C421.31 189.18 422.15 185.85 422.15 182C422.15 178.15 421.31 174.82 419.64 172.03C417.97 169.23 415.61 167.07 412.56 165.52C409.51 163.98 405.86 163.21 401.62 163.21C397.44 163.21 393.81 163.98 390.73 165.52C387.65 167.06 385.27 169.23 383.6 172.03C381.93 174.82 381.09 178.15 381.09 182C381.09 185.85 381.92 189.18 383.6 191.97C385.27 194.77 387.65 196.93 390.73 198.47C393.82 200.01 397.45 200.78 401.62 200.78Z" fill="#144BC4"/>
<path d="M442.479 154.719H455.01L458.289 174.569V209.269H445.76V172.169L442.479 154.719ZM485.95 154.329V165.319C484.54 164.929 482.99 164.649 481.33 164.449C479.66 164.259 478.079 164.159 476.609 164.159C473.079 164.159 469.929 164.929 467.169 166.469C464.409 168.009 462.239 170.309 460.659 173.359C459.089 176.409 458.299 180.149 458.299 184.589L455.409 181.019C455.669 177.169 456.33 173.549 457.39 170.179C458.45 166.809 459.93 163.869 461.82 161.359C463.71 158.849 466.04 156.899 468.81 155.479C471.57 154.069 474.79 153.359 478.45 153.359C479.73 153.359 481.05 153.439 482.4 153.599C483.73 153.769 484.92 154.009 485.95 154.329Z" fill="#144BC4"/>
<path d="M493.85 154.72H506.38V173.71L505.8 175.64V186.63L506.38 190V225.18H493.85V154.72ZM501.56 181.99C502.78 176.21 504.8 171.18 507.63 166.91C510.46 162.64 513.94 159.31 518.09 156.94C522.23 154.56 526.84 153.37 531.92 153.37C537.25 153.37 541.97 154.57 546.09 156.98C550.2 159.39 553.41 162.73 555.73 167C558.04 171.27 559.2 176.27 559.2 181.99C559.2 187.64 558.05 192.62 555.73 196.93C553.42 201.24 550.2 204.59 546.09 207C541.98 209.41 537.25 210.61 531.92 210.61C526.84 210.61 522.25 209.42 518.14 207.04C514.03 204.66 510.54 201.32 507.68 197.02C504.82 192.72 502.78 187.71 501.56 181.99ZM546.47 181.99C546.47 178.33 545.71 175.1 544.21 172.3C542.7 169.5 540.63 167.32 537.99 165.75C535.35 164.18 532.34 163.39 528.93 163.39C525.52 163.39 522.33 164.18 519.34 165.75C516.35 167.32 513.73 169.51 511.49 172.3C509.24 175.09 507.41 178.32 506 181.99C507.41 185.65 509.24 188.88 511.49 191.68C513.74 194.48 516.36 196.66 519.34 198.23C522.33 199.81 525.52 200.59 528.93 200.59C532.34 200.59 535.35 199.8 537.99 198.23C540.62 196.66 542.7 194.47 544.21 191.68C545.72 188.88 546.47 185.65 546.47 181.99Z" fill="#144BC4"/>
<path d="M171.271 95.4902H73.8306C72.6606 90.6002 71.4905 85.7202 70.3105 80.8302C105.541 80.5402 140.761 80.2502 175.991 79.9502C174.421 85.1302 172.841 90.3102 171.271 95.4902Z" fill="#144BC4"/>
<path d="M181.821 68.1204C142.741 67.9004 103.651 67.6804 64.5706 67.4604C62.6606 62.6104 60.7606 57.7504 58.8506 52.9004C101.721 52.9904 144.591 53.0904 187.461 53.1804C185.581 58.1604 183.701 63.1404 181.821 68.1204Z" fill="#144BC4"/>
<path d="M123.15 0.700195C55.6302 0.700195 0.700195 55.6302 0.700195 123.15C0.700195 190.67 55.6302 245.6 123.15 245.6C190.67 245.6 245.6 190.67 245.6 123.15C245.6 55.6302 190.67 0.700195 123.15 0.700195ZM158.35 226.15C158.51 210.38 158.94 169.23 159.53 112.37C154.54 113.85 149.55 115.33 144.57 116.82C144.29 154.56 144.01 192.3 143.72 230.04C139.36 230.89 134.9 231.47 130.36 231.76L130.81 120.79C125.5 120.73 120.18 120.67 114.87 120.6C115.13 157.65 115.39 194.69 115.65 231.74C110.79 231.41 106.02 230.76 101.36 229.8V116.64C96.6602 115.21 91.9602 113.79 87.2602 112.37C87.1102 150.16 86.9602 187.95 86.8002 225.75C44.6002 210.76 14.3002 170.43 14.3002 123.15C14.3002 63.1302 63.1302 14.3002 123.15 14.3002C183.17 14.3002 232 63.1302 232 123.15C232 170.86 201.15 211.49 158.35 226.15Z" fill="#144BC4"/>
</svg>
