<svg xmlns="http://www.w3.org/2000/svg" version="1.1" xmlns:xlink="http://www.w3.org/1999/xlink" width="1000" height="1000"><g clip-path="url(#SvgjsClipPath1089)"><rect width="1000" height="1000" fill="#ffffff"></rect><g transform="matrix(1.5332197614991483,0,0,1.5332197614991483,50,50)"><svg xmlns="http://www.w3.org/2000/svg" version="1.1" xmlns:xlink="http://www.w3.org/1999/xlink" width="587" height="587"><svg width="587" height="587" viewBox="0 0 587 587" fill="none" xmlns="http://www.w3.org/2000/svg">
<path d="M408.7 227.56H175.42C172.61 215.86 169.81 204.16 167 192.47C251.34 191.77 335.68 191.07 420.02 190.37C416.25 202.77 412.47 215.16 408.7 227.56Z" fill="#144BC4"></path>
<path d="M433.97 162.03C340.4 161.51 246.83 160.98 153.26 160.46C148.69 148.84 144.13 137.22 139.56 125.61C242.19 125.83 344.83 126.05 447.46 126.28C442.96 138.19 438.46 150.11 433.97 162.03Z" fill="#144BC4"></path>
<path d="M293.51 0.629883C131.86 0.629883 0.349609 132.14 0.349609 293.79C0.349609 455.44 131.86 586.95 293.51 586.95C455.16 586.95 586.67 455.44 586.67 293.79C586.67 132.14 455.16 0.629883 293.51 0.629883ZM377.78 540.38C378.16 502.62 379.19 404.11 380.61 267.98C368.66 271.52 356.72 275.07 344.79 278.63C344.12 368.98 343.45 459.34 342.75 549.69C332.31 551.73 321.63 553.11 310.76 553.81L311.84 288.13C299.13 287.99 286.39 287.84 273.68 287.68C274.3 376.38 274.92 465.06 275.55 553.76C263.91 552.97 252.49 551.41 241.34 549.12V278.2C230.09 274.78 218.84 271.38 207.58 267.98C207.22 358.45 206.86 448.93 206.48 539.42C105.45 503.53 32.9096 406.98 32.9096 293.78C32.9096 150.09 149.81 33.1799 293.51 33.1799C437.21 33.1799 554.11 150.08 554.11 293.78C554.11 408.01 480.25 505.28 377.78 540.38Z" fill="#144BC4"></path>
</svg></svg></g></g><defs><clipPath id="SvgjsClipPath1089"><rect width="1000" height="1000" x="0" y="0" rx="500" ry="500"></rect></clipPath></defs></svg>